 <svg version="1.0" xmlns="http://www.w3.org/2000/svg" width="700.000000pt" height="281.000000pt" viewBox="0 0 700.000000 281.000000" preserveAspectRatio="xMidYMid meet">
<metadata>
Created by potrace 1.12, written by Peter Selinger 2001-2015
</metadata>
<style>
	fill: blue;
	</style>
<g transform="translate(0.000000,281.000000) scale(0.100000,-0.100000)" fill="#000000" stroke="none">
<path d="M1270 2218 c-30 -5 -179 -7 -330 -6 l-275 3 0 -29 c0 -29 2 -30 71
-42 91 -15 111 -26 124 -72 16 -52 7 -1274 -9 -1392 -14 -95 -36 -143 -69
-148 -12 -2 -41 11 -68 30 -103 74 -138 83 -182 52 -32 -22 -64 -90 -60 -127
5 -53 53 -77 152 -77 87 0 129 8 216 43 116 45 197 121 255 241 61 125 65 164
65 673 0 532 7 599 71 718 20 37 39 56 73 74 75 39 56 73 -34 59z m-40 -55 c0
-7 -11 -28 -24 -48 -13 -19 -34 -63 -47 -98 -22 -60 -23 -76 -30 -577 -7 -488
-12 -572 -40 -659 -35 -107 -116 -212 -203 -262 -66 -37 -88 -38 -54 -1 67 69
73 142 73 907 0 600 -1 652 -17 682 -10 18 -26 37 -35 42 -37 22 11 28 193 27
136 -1 184 -4 184 -13z m-566 -1615 c33 -23 79 -47 101 -54 25 -7 34 -14 25
-17 -89 -33 -225 -37 -260 -9 -21 17 -22 22 -11 52 15 44 39 70 64 70 11 0 47
-19 81 -42z" style="fill:blue"></path>
<path d="M1993 2203 c-11 -29 16 -50 73 -56 32 -3 64 -13 72 -21 14 -14 13
-21 -10 -68 -28 -58 -108 -225 -183 -383 -26 -55 -67 -140 -90 -190 -45 -94
-78 -167 -89 -198 -3 -10 -11 -17 -18 -15 -12 4 -15 9 -46 78 -22 48 -82 176
-182 385 -104 217 -162 339 -171 363 -5 12 -12 22 -17 22 -16 0 -69 -85 -91
-145 -21 -59 -21 -68 -19 -605 l3 -545 28 -3 28 -3 -1 443 c-1 287 2 444 8
446 6 2 21 -19 35 -45 28 -56 226 -413 237 -428 4 -5 29 -50 55 -100 57 -107
71 -125 100 -125 34 0 59 28 90 100 15 36 42 97 60 135 58 123 115 247 115
251 0 3 18 41 39 87 86 182 113 243 118 269 6 31 30 56 41 42 4 -5 5 -217 2
-471 l-5 -461 -23 -25 c-19 -20 -39 -27 -95 -34 l-72 -8 0 -35 c0 -27 4 -35
18 -34 9 0 153 1 318 2 l302 2 -46 49 c-25 26 -56 70 -69 97 l-23 49 0 533 0
534 28 24 c17 14 46 26 77 30 53 7 74 22 68 51 -3 17 -25 18 -332 18 -243 0
-330 -3 -333 -12z m517 -30 c0 -3 -13 -20 -30 -39 -16 -18 -32 -48 -35 -66 -3
-18 -5 -260 -3 -538 l3 -505 32 -69 c18 -37 30 -72 27 -77 -7 -11 -354 -12
-354 -1 0 5 11 19 25 32 14 13 29 40 35 59 6 21 10 214 10 471 0 378 -2 438
-16 458 -37 53 -79 19 -137 -113 -25 -55 -56 -125 -70 -155 -14 -30 -47 -104
-75 -165 -191 -421 -187 -413 -214 -402 -7 3 -87 139 -177 304 -188 342 -201
360 -239 365 l-27 3 1 105 c0 85 5 114 22 153 12 26 26 47 32 47 10 0 45 -70
165 -325 218 -465 235 -492 288 -464 16 9 69 112 200 389 19 41 62 131 94 200
121 255 122 256 99 312 -5 11 -2 18 11 21 26 6 333 6 333 0z" style="fill:blue"></path>
<path d="M3515 2041 c-3 -6 4 -15 15 -21 19 -10 20 -20 20 -166 l0 -154 -25
-10 c-28 -11 -33 -28 -10 -36 22 -9 78 28 86 56 4 14 7 87 8 162 1 127 3 138
21 148 33 18 13 30 -50 30 -32 0 -61 -4 -65 -9z"></path>
<path d="M3690 2042 c0 -5 9 -16 21 -23 20 -14 20 -18 11 -128 -9 -109 -11
-116 -38 -138 -16 -12 -26 -23 -21 -24 42 -3 129 0 135 6 4 3 -4 14 -16 24
-22 16 -23 21 -15 85 4 36 12 68 17 69 5 1 22 -34 38 -78 16 -44 36 -87 44
-95 13 -13 17 -12 34 10 11 14 20 30 20 36 0 18 42 118 55 133 10 10 14 -3 20
-67 7 -84 4 -102 -21 -102 -8 0 -14 -6 -14 -12 0 -9 19 -13 66 -11 76 2 87 8
56 31 -19 15 -24 33 -34 131 -12 113 -12 114 10 129 12 8 22 18 22 23 0 14
-110 11 -114 -3 -25 -95 -70 -208 -81 -205 -11 4 -53 104 -69 167 l-12 45 -57
3 c-31 2 -57 -1 -57 -6z"></path>
<path d="M4140 2040 c0 -5 9 -14 20 -20 18 -10 20 -21 20 -131 0 -118 0 -120
-25 -129 -53 -20 -25 -30 85 -30 l110 0 11 27 c5 14 7 34 3 42 -5 13 -8 12
-21 -6 -12 -18 -25 -23 -58 -23 -53 0 -55 5 -55 118 0 105 6 129 32 135 11 3
17 10 13 16 -8 14 -135 15 -135 1z"></path>
<path d="M4495 2040 c-3 -6 2 -13 12 -17 30 -11 33 -23 33 -141 0 -111 0 -113
-25 -122 -60 -23 -21 -30 160 -29 102 0 185 3 185 6 0 4 -6 14 -14 22 -11 13
-12 23 -2 51 10 33 13 35 56 35 43 0 46 -2 57 -35 10 -31 9 -38 -10 -57 l-20
-23 61 -1 c34 -1 68 -2 75 -3 21 -2 13 24 -12 37 -18 9 -36 44 -76 147 -40
104 -56 135 -70 135 -14 0 -31 -31 -72 -135 -51 -130 -70 -160 -101 -160 -10
0 -12 7 -8 24 8 32 -10 43 -24 16 -9 -18 -19 -21 -58 -18 l-47 3 -3 100 c-3
119 1 141 29 148 12 3 18 10 14 16 -8 14 -132 14 -140 1z m419 -116 c10 -26 7
-34 -14 -34 -15 0 -20 7 -20 25 0 28 24 34 34 9z"></path>
<path d="M5030 2041 c0 -5 10 -16 23 -24 17 -11 37 -53 71 -149 26 -73 52
-137 56 -142 4 -4 20 -2 36 5 21 11 34 32 56 92 16 42 33 77 38 77 4 0 20 -36
36 -80 15 -44 33 -85 40 -91 14 -12 64 5 64 22 0 30 84 237 106 260 13 14 24
28 24 32 0 10 -118 9 -124 -1 -3 -5 3 -16 14 -25 18 -15 18 -18 -13 -111 -17
-53 -36 -96 -43 -96 -12 0 -64 149 -64 185 0 12 7 26 16 29 33 13 0 26 -67 26
-71 0 -90 -13 -44 -30 32 -12 32 -35 -2 -132 -26 -76 -45 -97 -56 -60 -3 9
-17 48 -31 87 -30 80 -32 101 -11 109 37 14 11 26 -55 26 -38 0 -70 -4 -70 -9z"></path>
<path d="M5589 1788 c-5 -21 -4 -110 2 -113 4 -3 17 8 29 25 28 39 24 84 -7
88 -13 2 -23 2 -24 0z"></path>
<path d="M4373 1425 c-13 -9 -23 -27 -23 -40 0 -13 -5 -27 -10 -30 -7 -4 -7
-12 0 -25 13 -24 13 -107 0 -115 -22 -13 -8 -25 30 -25 40 0 53 13 25 24 -11
4 -15 20 -15 56 0 46 3 52 28 62 l27 11 -25 6 c-18 5 -25 14 -25 31 0 22 4 25
33 22 27 -2 33 1 30 15 -4 24 -47 28 -75 8z"></path>
<path d="M5565 1430 c-4 -6 -2 -16 3 -23 12 -14 20 -183 9 -193 -3 -4 -13 -4
-22 -1 -11 5 -15 21 -15 61 0 45 -4 58 -22 70 -28 20 -68 20 -94 2 -15 -12
-16 -17 -7 -27 10 -10 15 -10 27 0 20 16 61 10 61 -9 0 -10 -12 -16 -31 -18
-41 -4 -66 -32 -62 -69 l3 -28 99 -3 c111 -3 134 1 117 21 -5 7 -12 60 -13
118 -3 98 -4 104 -25 107 -11 2 -24 -2 -28 -8z m-62 -167 c10 -17 -13 -53 -33
-53 -25 0 -37 25 -20 45 13 16 46 20 53 8z"></path>
<path d="M3573 1353 c-14 -32 -34 -77 -44 -100 -10 -24 -23 -43 -29 -43 -5 0
-10 -4 -10 -10 0 -5 18 -10 40 -10 38 0 39 1 34 29 -9 42 11 71 46 71 35 0 55
-29 46 -71 -5 -28 -4 -29 34 -29 42 0 50 9 26 29 -8 7 -24 37 -36 69 -57 146
-68 152 -107 65z m52 -24 c0 -7 -8 -15 -17 -17 -18 -3 -25 18 -11 32 10 10 28
1 28 -15z"></path>
<path d="M3820 1401 c0 -6 5 -13 10 -16 6 -3 10 -42 10 -85 0 -43 -4 -82 -10
-85 -21 -13 -9 -25 25 -25 36 0 43 8 24 27 -6 6 -9 23 -7 39 2 24 8 29 34 32
18 2 40 12 50 23 9 10 25 19 36 19 15 0 18 -8 18 -54 0 -30 -4 -58 -10 -61
-22 -13 -8 -25 30 -25 40 0 53 13 25 24 -10 4 -15 19 -15 49 0 47 17 71 43 61
24 -9 41 5 27 21 -8 9 -27 12 -63 8 -49 -5 -53 -3 -75 26 -21 29 -26 31 -87
31 -36 0 -65 -4 -65 -9z m120 -32 c9 -17 8 -25 -6 -40 -35 -39 -79 -4 -60 47
8 22 54 17 66 -7z"></path>
<path d="M4924 1399 c-10 -17 13 -36 27 -22 12 12 4 33 -11 33 -5 0 -12 -5
-16 -11z"></path>
<path d="M5750 1402 c0 -4 5 -13 11 -19 8 -8 10 -43 7 -102 l-4 -91 66 0 c38
0 71 5 78 12 9 9 15 9 24 0 7 -7 39 -12 74 -12 l62 0 -5 63 c-7 77 -15 94 -51
102 -31 6 -82 -9 -82 -24 0 -17 19 -22 38 -10 22 14 56 5 50 -13 -3 -7 -20
-16 -38 -19 -31 -7 -48 -21 -69 -57 -4 -7 -27 -14 -52 -15 l-44 -2 -3 79 c-2
63 1 82 14 97 16 18 15 19 -29 19 -26 0 -47 -4 -47 -8z m274 -140 c8 -13 -23
-52 -40 -52 -20 0 -29 27 -14 45 13 16 46 20 54 7z"></path>
<path d="M4193 1353 c-30 -6 -63 -49 -63 -83 0 -15 9 -39 21 -54 17 -22 28
-26 69 -26 58 0 80 23 80 81 0 60 -44 93 -107 82z m67 -55 c13 -25 13 -31 0
-55 -21 -37 -58 -42 -82 -11 -22 29 -23 47 -2 76 22 31 63 26 84 -10z"></path>
<path d="M4476 1329 c-31 -37 -33 -77 -5 -113 17 -22 28 -26 71 -26 35 0 48 4
45 13 -2 7 -17 11 -35 9 -21 -2 -38 4 -52 18 -29 29 -17 40 46 40 51 0 54 2
54 24 0 29 -42 66 -75 66 -14 0 -34 -13 -49 -31z m82 -21 c3 -14 -3 -18 -26
-18 -35 0 -45 9 -30 27 15 19 52 12 56 -9z"></path>
<path d="M4652 1344 c-40 -28 -27 -62 33 -81 19 -6 30 -16 30 -29 0 -25 -32
-30 -56 -9 -17 16 -19 16 -25 2 -10 -26 5 -37 50 -37 83 0 97 64 21 96 -19 7
-36 18 -40 24 -10 16 26 24 48 11 29 -18 50 5 23 25 -26 18 -56 18 -84 -2z"></path>
<path d="M4792 1344 c-40 -28 -27 -62 33 -81 34 -11 45 -40 19 -50 -9 -3 -26
-1 -37 6 -21 14 -44 1 -33 -18 10 -16 91 -14 106 3 20 25 8 60 -29 78 -19 9
-38 21 -44 27 -16 16 22 26 44 13 25 -16 38 7 14 25 -25 17 -45 17 -73 -3z"></path>
<path d="M5065 1353 c-52 -12 -71 -89 -34 -137 28 -35 95 -37 127 -3 34 36 30
89 -9 121 -30 25 -44 29 -84 19z m75 -55 c13 -25 13 -31 0 -55 -21 -37 -62
-42 -84 -11 -9 12 -16 29 -16 38 0 9 7 26 16 38 22 31 63 26 84 -10z"></path>
<path d="M5204 1349 c-2 -4 3 -12 11 -19 17 -14 21 -105 5 -115 -22 -13 -8
-25 30 -25 40 0 53 13 25 24 -20 7 -20 89 -1 106 8 6 25 10 38 8 21 -3 23 -9
28 -68 5 -59 7 -65 29 -68 21 -3 23 -1 18 20 -4 12 -7 39 -7 59 0 21 -8 47
-19 60 -15 19 -28 23 -86 23 -37 1 -69 -2 -71 -5z"></path>
<path d="M6302 1348 c-7 -7 -12 -24 -12 -39 0 -66 -35 -83 -45 -21 -10 57 -13
62 -35 62 -15 0 -20 -7 -20 -27 0 -42 -11 -73 -24 -73 -14 0 -38 68 -30 82 7
11 -22 22 -41 14 -13 -5 -13 -9 0 -33 9 -15 24 -50 35 -76 23 -55 37 -57 61
-8 19 41 27 41 48 0 9 -18 20 -33 26 -33 11 -1 53 71 54 93 1 8 8 22 17 32 26
29 -6 55 -34 27z"></path>
<path d="M4910 1341 c0 -5 5 -13 10 -16 6 -3 10 -28 10 -55 0 -27 -4 -52 -10
-55 -21 -13 -9 -25 25 -25 35 0 43 8 26 26 -6 5 -11 36 -13 69 -3 54 -5 60
-25 63 -13 2 -23 -1 -23 -7z"></path>
<path d="M3095 1135 c-34 -70 -103 -156 -152 -186 -35 -22 -48 -23 -190 -24
-84 0 -153 -3 -153 -7 0 -11 85 -65 121 -76 19 -6 113 -12 209 -13 140 -1 176
1 181 12 14 28 50 156 66 236 18 91 11 113 -33 113 -19 0 -29 -11 -49 -55z
m45 -42 c0 -20 -53 -199 -62 -210 -13 -16 -228 -18 -228 -3 0 6 11 10 25 10
64 0 157 69 215 161 29 44 50 62 50 42z" style="fill:blue"></path>
<path d="M3572 1027 c-36 -21 -56 -57 -56 -108 -1 -40 4 -53 28 -78 26 -28 36
-31 87 -31 38 0 61 5 69 15 14 17 12 18 -56 15 -45 -1 -54 2 -73 26 -46 58
-12 144 58 144 20 0 42 -5 49 -12 9 -9 15 -9 24 0 34 34 -76 59 -130 29z"></path>
<path d="M4903 1024 c-8 -21 13 -42 28 -27 13 13 5 43 -11 43 -6 0 -13 -7 -17
-16z"></path>
<path d="M4785 1021 c-3 -6 -3 -16 0 -21 4 -6 1 -17 -5 -25 -10 -12 -10 -18
-1 -29 8 -10 10 -30 6 -60 -8 -53 4 -76 41 -76 30 0 40 17 14 25 -16 5 -20 15
-20 55 0 41 4 51 22 61 22 12 22 12 3 19 -11 4 -22 17 -25 30 -6 26 -25 37
-35 21z"></path>
<path d="M3762 955 c-39 -32 -43 -78 -11 -119 17 -22 28 -26 69 -26 58 0 80
23 80 81 0 47 -26 78 -71 85 -28 5 -41 1 -67 -21z m90 -22 c21 -19 23 -52 5
-77 -19 -26 -68 -18 -86 15 -13 24 -13 29 2 53 20 30 52 34 79 9z"></path>
<path d="M3930 963 c0 -6 5 -15 10 -18 6 -3 10 -28 10 -55 0 -27 -4 -52 -10
-55 -22 -13 -8 -25 30 -25 42 0 50 9 25 30 -17 14 -20 62 -5 90 7 14 20 18 52
17 l43 -2 1 -87 c1 -63 -3 -91 -12 -99 -24 -20 -15 -29 26 -29 41 0 49 7 29
27 -6 6 -9 21 -7 34 3 21 8 23 43 21 54 -4 80 23 80 84 0 72 -12 78 -175 78
-102 1 -140 -2 -140 -11z m277 -39 c15 -24 15 -29 2 -53 -12 -20 -22 -26 -49
-26 -33 0 -35 2 -38 38 -2 21 2 45 9 53 19 23 57 17 76 -12z"></path>
<path d="M4317 974 c-21 -7 -47 -54 -47 -87 0 -13 9 -36 21 -51 17 -22 28 -26
69 -26 40 0 50 4 64 25 21 32 20 87 -1 114 -18 22 -72 34 -106 25z m75 -41
c24 -21 23 -58 -2 -83 -25 -25 -31 -25 -64 1 -30 23 -33 45 -10 77 18 26 50
28 76 5z"></path>
<path d="M4464 969 c-2 -4 3 -12 11 -19 17 -14 21 -105 5 -115 -22 -13 -8 -25
30 -25 42 0 50 9 25 30 -19 16 -20 84 0 100 8 6 23 9 34 5 22 -7 37 10 19 22
-15 9 -118 11 -124 2z"></path>
<path d="M4630 965 c-16 -19 -3 -40 15 -25 19 16 60 9 60 -10 0 -9 -11 -16
-31 -18 -17 -2 -42 -14 -54 -27 -20 -21 -22 -28 -12 -50 11 -24 16 -26 74 -23
l62 3 -3 65 c-1 52 -6 69 -23 83 -25 21 -71 22 -88 2z m77 -91 c5 -15 -24 -44
-43 -44 -21 0 -29 27 -13 46 14 17 50 15 56 -2z"></path>
<path d="M5015 955 c-34 -33 -34 -93 -2 -123 53 -50 147 -15 147 55 0 45 -9
62 -41 78 -41 22 -77 18 -104 -10z m104 -37 c23 -41 3 -78 -43 -78 -25 0 -38
6 -46 19 -37 69 51 128 89 59z"></path>
<path d="M5193 967 c-3 -5 0 -14 6 -20 14 -14 15 -104 1 -112 -21 -13 -9 -25
25 -25 34 0 46 12 25 25 -16 10 -12 91 4 105 8 6 25 10 38 8 21 -3 23 -9 26
-66 3 -65 14 -81 49 -68 12 5 14 9 5 18 -7 7 -12 33 -12 58 0 66 -23 85 -102
85 -33 0 -62 -4 -65 -8z"></path>
<path d="M4890 961 c0 -5 5 -13 10 -16 6 -3 10 -28 10 -55 0 -27 -4 -52 -10
-55 -21 -13 -9 -25 25 -25 35 0 43 8 26 26 -6 5 -11 36 -13 69 -3 54 -5 60
-25 63 -13 2 -23 -1 -23 -7z"></path>
</g>
</svg>